<?xml version="1.0" encoding="UTF-8"?>
<svg id="Capa_1" xmlns="http://www.w3.org/2000/svg" version="1.1" viewBox="0 185 1024 685">
  <!-- Generator: Adobe Illustrator 30.2.1, SVG Export Plug-In . SVG Version: 2.1.1 Build 1)  -->
  <defs>
    
  </defs>
  <g id="Capa_9">
    <path fill="#a362d6" d="M660.34,700.95l11.09-64.08h-121.97s-62.11,0-62.11,0c-8.19,2.4-17.08,3.61-26.42,3.61-.69,0-1.38,0-2.08-.02-13.91-.31-26.13-3.19-36.36-8.56-10.58-5.54-19.2-13.34-25.61-23.18-4.09-6.28-7.27-13.21-9.5-20.67-2.03,2.58-4.09,5.04-6.18,7.38-1.15,1.29-2.32,2.57-3.51,3.81l34.39,32.7-75.14,57.51-50.85-49.2c-1.47.04-2.99.07-4.54.07-1.03,0-2.05,0-3.08-.03-21.05-.42-39.52-5.21-54.9-14.24-15.32-8.97-27.66-21.17-36.66-36.24-8.46-14.13-14.21-30.09-17.09-47.42-2.74-16.54-3.14-33.69-1.19-50.98l1.43-11.65.03-.2c2.57-17.96,7.55-35.56,14.82-52.28,7.41-17.06,17.23-32.54,29.19-46.01,12.47-14.06,27.45-25.2,44.51-33.1,16.53-7.67,35.04-11.56,55.02-11.56,1,0,1.99.01,3.01.03,20.93.29,39.36,5.02,54.76,14.05,15.26,8.94,27.6,21.06,36.69,36.02,3.3,5.46,6.22,11.25,8.7,17.25h175.1c-.93-3.07-1.4-6.32-1.4-9.72,0-4.09.71-8.26,2.11-12.4-.64-2.35-.97-4.79-.97-7.27v-.57c-.63-2.76-.95-5.58-.95-8.39,0-7.56,2.34-14.45,6.76-19.93,3.45-4.39,8.16-7.88,13.59-10.05l.67-.28.71-.23c2.31-.77,4.72-1.33,7.16-1.66,3.23-3.28,6.72-5.74,10.62-7.49,4.3-1.94,8.75-2.93,13.21-2.93s8.91.97,13.29,2.98l.37.16.42.21c1.97.99,4.82,2.55,7.69,5.1,3.88.65,7.62,2.15,10.89,4.38,5.9,2.39,10.85,6.27,14.36,11.25,3.93,5.55,6.02,12.02,6.02,18.71,0,5.92-1.59,10.92-2.96,14.39,1.85,4.86,2.75,9.48,2.75,14.13,0,3.35-.46,6.57-1.39,9.62h161.75l-11.42,67.05-69.07,76.33h57.84l-12.11,70.06h34.51l-14.46,83.55h-181.54Z"/>
  </g>
  <g id="Capa_8">
    <path fill="#652b99" d="M816.81,623.4h31.55c.77,0,1.36.7,1.23,1.46l-11.95,69.06c-.1.6-.62,1.03-1.23,1.03h-166.81c-.77,0-1.36-.7-1.23-1.46l10.58-61.16c.13-.76-.45-1.46-1.23-1.46h-121.24.01-69.19c-.12,0-.23.02-.35.05-7.83,2.37-16.33,3.56-25.37,3.56-.66,0-1.32-.01-1.98-.02-12.98-.29-24.29-2.94-33.67-7.87-9.65-5.06-17.52-12.17-23.37-21.15-5.49-8.41-9.2-18.04-11.03-28.63v-.03c-.19-1.11-1.62-1.42-2.26-.5-3.68,5.32-7.63,10.39-11.88,15.16-2.15,2.42-4.39,4.75-6.71,7-.51.49-.51,1.3,0,1.79l31.78,30.2c.56.53.51,1.43-.1,1.89l-63.45,48.56c-.49.37-1.18.33-1.62-.09l-47.82-46.27c-.25-.24-.58-.36-.92-.35-2.1.09-4.21.15-6.33.15-.99,0-1.97,0-2.96-.03-20.01-.4-37.5-4.91-51.99-13.41-14.43-8.45-26.06-19.94-34.54-34.15-8.08-13.48-13.57-28.74-16.32-45.33-2.65-15.99-3.04-32.58-1.15-49.32l1.4-11.45.03-.19c2.49-17.46,7.33-34.55,14.39-50.77,7.15-16.46,16.62-31.41,28.16-44.41,11.92-13.44,26.24-24.08,42.55-31.65,15.74-7.3,33.4-11,52.49-11,.96,0,1.92.01,2.89.02,19.9.28,37.35,4.73,51.86,13.23,14.41,8.45,26.04,19.88,34.59,33.97,3.69,6.09,6.82,12.55,9.43,19.33.18.48.64.8,1.16.8,0,0,83.67-.04,86.24,0,10.06.16,75.49.31,99.39,0,.99,0,1.56-1.08,1.05-1.92-2.46-4-3.75-8.72-3.75-13.8,0-3.89.77-7.87,2.29-11.84.1-.27.11-.56.01-.83-.75-2.19-1.16-4.55-1.16-6.99,0-.34,0-.68.02-1.02,0-.11,0-.22-.03-.32-.62-2.52-.93-5.06-.93-7.62,0-6.19,1.88-11.77,5.43-16.18,2.82-3.6,6.67-6.44,11.15-8.24l.5-.2.5-.17c2.47-.82,5.05-1.36,7.69-1.59.31-.03.59-.17.8-.4,3.01-3.33,6.28-5.76,9.91-7.39,3.52-1.59,7.13-2.4,10.74-2.4s7.23.8,10.83,2.44l.29.14.29.14c2.12,1.06,4.8,2.58,7.34,5.11.25.12.49.23.74.35,3.78.4,7.32,1.79,10.31,3.96l.53.21c4.85,1.94,8.92,5.11,11.78,9.17,3.22,4.54,4.92,9.82,4.92,15.26s-1.64,10.01-2.88,13.02l-.12.31s-.36.78-.48,1.03c.11.23.42.92.42.92l.1.24c1.85,4.55,2.75,8.8,2.75,13,0,5.01-1.29,9.7-3.74,13.72-.51.83.07,1.9,1.05,1.9h160.47c.77,0,1.36.69,1.23,1.46l-9.62,56.51c-.04.23-.15.45-.3.63l-74.85,82.71c-.73.8-.16,2.08.92,2.08h59.94c.77,0,1.36.7,1.23,1.46-3.46,22.87-6.92,45.73-10.38,68.6l-.02-.02Z"/>
  </g>
  <g id="Logo_terminado">
    <g>
      <g>
        <polygon fill="#58d6d8" points="706.55 670.53 705.35 677.37 680.29 677.37 687.13 637.83 695.76 637.83 690.09 670.53 706.55 670.53"/>
        <path fill="#58d6d8" d="M733.78,670.15l1.99-12.34c.2-2.17-.14-4.03-1.02-5.55-.88-1.54-2.14-2.7-3.78-3.53-1.66-.83-3.5-1.26-5.54-1.29-1.47-.04-2.97.12-4.48.49-1.52.36-2.93.92-4.22,1.69-1.28.77-2.34,1.76-3.16,2.97-.82,1.22-1.28,2.66-1.37,4.33l8.31-.06c.14-.71.39-1.32.75-1.85.36-.52.81-.93,1.38-1.21s1.22-.41,1.97-.39c.86.01,1.5.22,1.94.63.43.41.7.93.82,1.56s.14,1.32.07,2.05l-.28,1.78-3.38-.02c-1.66,0-3.3.16-4.97.47-1.67.3-3.2.83-4.62,1.57-1.41.75-2.57,1.76-3.45,3.04-.89,1.27-1.37,2.89-1.45,4.84-.07,1.69.29,3.17,1.09,4.46.8,1.28,1.87,2.29,3.21,3.03,1.36.73,2.84,1.11,4.47,1.16,1.13.01,2.19-.13,3.16-.47.97-.32,1.86-.78,2.65-1.37.49-.36.93-.76,1.36-1.2.08.85.23,1.67.49,2.46l8.12-.02.03-.51c-.46-1.03-.62-2.15-.5-3.33.11-1.19.26-2.31.41-3.38h0ZM722.73,671.33c-.81.33-1.64.49-2.49.48-.58-.02-1.07-.16-1.47-.41-.39-.26-.69-.6-.88-1.05-.19-.44-.24-.96-.14-1.54.09-.8.32-1.49.7-2.08s.86-1.08,1.41-1.47,1.19-.68,1.9-.87c.7-.19,1.42-.29,2.15-.31l2.53.02-.7,4.47c-.22.48-.52.9-.9,1.3-.6.63-1.3,1.11-2.1,1.45h-.01Z"/>
        <path fill="#58d6d8" d="M766.48,657.12c-.18-1.73-.59-3.31-1.26-4.77-.66-1.44-1.64-2.61-2.91-3.52-1.3-.9-2.95-1.38-4.98-1.41-1.9-.06-3.58.37-5.05,1.29-.46.28-.9.6-1.32.95l2.43-14h-8.27l-7.25,41.71h7.48l1.13-3.77c.61,1.12,1.39,2.06,2.35,2.84,1.19.94,2.72,1.44,4.56,1.5,2.13.06,3.95-.34,5.51-1.22,1.55-.87,2.84-2.04,3.86-3.52,1.04-1.47,1.85-3.11,2.44-4.94.59-1.82.99-3.65,1.21-5.47l.04-.6c.19-1.66.19-3.36.03-5.07h0ZM758.19,662.07s-.01.07-.01.1l-.04.6c-.12.93-.3,1.91-.52,2.92-.23,1.01-.57,1.96-1.02,2.82-.45.85-1.06,1.55-1.81,2.09-.61.42-1.36.66-2.23.72-.23.02-.47.03-.71.02-1.38-.05-2.37-.44-2.99-1.18-.54-.63-.88-1.4-1.05-2.31-.02-.13-.04-.29-.07-.43-.02-.2-.04-.4-.05-.6-.07-.89-.06-1.78.03-2.67l.38-2.91c.12-.92.34-1.82.66-2.7.25-.75.6-1.44,1.02-2.05.07-.11.14-.21.22-.31.52-.7,1.18-1.24,1.97-1.65.79-.4,1.71-.57,2.78-.54,1.06.03,1.84.34,2.37.91.52.57.87,1.28,1.02,2.12.17.84.24,1.73.22,2.65-.04.9-.09,1.7-.17,2.4h0Z"/>
        <path fill="none" d="M758.36,659.67c-.04.9-.09,1.7-.17,2.4,0,.04-.01.07-.01.1l-.04.6c-.12.93-.3,1.91-.52,2.92-.23,1.01-.57,1.96-1.02,2.82-.45.85-1.06,1.55-1.81,2.09-.61.42-1.36.66-2.23.72-.23.02-.47.03-.71.02-1.38-.05-2.37-.44-2.99-1.18-.54-.63-.88-1.4-1.05-2.31-.02-.13-.04-.29-.07-.43-.02-.2-.04-.4-.05-.6-.07-.89-.06-1.78.03-2.67l.38-2.91c.12-.92.34-1.82.66-2.7.25-.75.6-1.44,1.02-2.05.07-.11.14-.21.22-.31.52-.7,1.18-1.24,1.97-1.65.79-.4,1.71-.57,2.78-.54,1.06.03,1.84.34,2.37.91.52.57.87,1.28,1.02,2.12.17.84.24,1.73.22,2.65h0Z"/>
        <path fill="none" d="M748.86,670.16c.62.74,1.61,1.13,2.99,1.18-1.38-.03-2.37-.29-2.99-.77-.54-.42-.88-.93-1.05-1.53-.02-.09-.04-.19-.07-.29-.11-.64-.13-1.29-.05-1.93.01.2.03.4.05.6.03.14.05.3.07.43.17.91.51,1.68,1.05,2.31Z"/>
        <path fill="none" d="M758.36,663.64c-.04.61-.09,1.16-.18,1.64l-.04.4c-.12.62-.3,1.26-.52,1.93-.23.67-.57,1.29-1.02,1.86-.45.57-1.06,1.03-1.81,1.38-.61.28-1.35.44-2.23.47.87-.06,1.62-.3,2.23-.72.75-.54,1.36-1.24,1.81-2.09.45-.86.79-1.81,1.02-2.82.22-1.01.4-1.99.52-2.92l.04-.6s.01-.06.01-.1c.13.5.19,1.03.17,1.57h0Z"/>
        <path fill="#58d6d8" d="M808.17,637.83h-8.07l-21.07,39.55h9.53l3.79-7.88h13.18l1.08,7.88h8.94l-7.4-39.55h.02ZM795.67,662.66l6.97-14.46,1.97,14.46h-8.94Z"/>
        <path fill="#58d6d8" d="M834.87,637.83l-6.84,39.54h-8.61l6.87-39.54h8.58Z"/>
      </g>
      <g>
        <path fill="#fff" d="M399.37,437.13c-2.4-14.41-7.1-27.4-14.1-38.97-7.01-11.56-16.44-20.82-28.29-27.77-11.85-6.94-26.2-10.53-43.06-10.76-17.55-.34-33.39,2.76-47.51,9.31-14.13,6.55-26.35,15.64-36.66,27.26-10.31,11.62-18.69,24.84-25.12,39.65-6.44,14.81-10.8,30.19-13.08,46.14l-1.36,11.11c-1.71,15.15-1.37,29.94,1.02,44.35,2.39,14.41,7.06,27.43,14.02,39.05,6.94,11.62,16.34,20.91,28.19,27.85,11.85,6.95,26.26,10.6,43.24,10.94,5.55.11,10.93-.13,16.14-.73l43.68,42.26,36.4-27.86-33.38-31.73c7.91-5.31,15.08-11.56,21.5-18.77,10.31-11.56,18.65-24.8,25.04-39.73,6.38-14.93,10.65-30.48,12.81-46.66l1.37-10.93c1.82-14.93,1.54-29.6-.85-44.01h0ZM345.19,481.48l-1.54,11.62c-1.14,8.66-3.13,17.63-5.98,26.92-2.85,9.28-6.78,17.91-11.79,25.89-5.01,7.97-11.31,14.38-18.88,19.22-7.58,4.85-16.67,7.04-27.26,6.58-9.91-.34-17.49-3.22-22.73-8.63s-8.8-12.22-10.68-20.42-2.74-16.72-2.57-25.55.71-16.78,1.63-23.84l1.36-11.62c1.26-8.66,3.31-17.66,6.16-27,2.84-9.34,6.75-17.97,11.7-25.89,4.96-7.92,11.2-14.25,18.72-18.97,7.52-4.73,16.69-6.87,27.51-6.41,9.8.45,17.29,3.36,22.47,8.71,5.19,5.36,8.75,12.08,10.69,20.17,1.93,8.09,2.84,16.52,2.73,25.29-.12,8.78-.63,16.75-1.54,23.93h0Z"/>
        <path fill="#fff" d="M584.31,426.96l-32.13,184.91h-48.71l1.49-15.28c-4.67,4.7-9.98,8.65-15.93,11.87-9.05,4.89-19.74,7.23-32.04,7-10.14-.23-18.69-2.16-25.64-5.81-6.95-3.64-12.5-8.66-16.66-15.04s-6.95-13.67-8.37-21.87c-1.43-8.21-1.68-16.92-.77-26.15l19.99-119.63h52.13l-20.34,120.31c-.34,3.54-.31,6.9.09,10.09.39,3.19,1.28,5.98,2.65,8.37,1.36,2.39,3.33,4.3,5.89,5.73,2.56,1.42,5.9,2.19,10,2.3,9.23.46,16.77-1.39,22.64-5.55,4.33-3.07,7.94-6.87,10.84-11.43l22.57-129.82h52.3Z"/>
        <path fill="#fff" d="M659.19,426.96l-31.96,184.91h-52.29l32.13-184.91h52.12Z"/>
        <polygon fill="#fff" points="820.38 459.09 719.7 570.34 803.12 570.34 795.94 611.87 645.04 611.87 650.68 578.89 750.77 468.49 672.89 468.49 680.07 426.96 825.85 426.96 820.38 459.09"/>
      </g>
      <g>
        <path fill="#58d6d8" d="M663.43,379.12c.4-.41.81-.91,1.12-1.42,1.72-2.23,3.04-4.47,4.06-6.7.92-2.23,1.53-4.26,1.53-6.19,0-1.83-.61-3.45-1.62-4.87-.92-1.32-2.23-2.23-3.75-2.84-1.53-.51-3.35-.81-5.28-.81-2.13,0-4.47.3-6.8.91-.1-.41-.3-.81-.41-1.12-1.42-3.05-2.94-5.48-4.87-7.21-.81-.91-1.93-1.52-2.94-2.03-1.11-.51-2.13-.82-3.35-.82-1.12,0-2.23.3-3.35.82-1.82.81-3.45,2.33-4.97,4.26-1.11,1.72-2.23,3.65-3.15,5.88-2.43-.61-4.77-.91-6.8-.91s-3.66.3-5.18.81c-1.52.61-2.84,1.52-3.75,2.74-1.12,1.32-1.52,3.15-1.52,4.97,0,1.93.41,3.96,1.42,6.19,1.11,2.54,2.84,5.28,4.97,8.12-.3.41-.71.91-1.01,1.32-1.82,2.34-3.15,4.67-4.16,6.8-.91,2.13-1.42,4.26-1.42,6.19,0,1.72.41,3.55,1.42,4.87s2.34,2.13,3.96,2.74c1.53.61,3.25.81,5.18.81,2.13,0,4.36-.2,6.8-.81.2.3.41.71.51,1.12,1.32,2.94,2.94,5.38,4.77,7.21.92.81,1.93,1.52,2.94,2.03,1.12.51,2.23.81,3.35.81,1.22,0,2.23-.3,3.35-.81,1.93-.81,3.55-2.44,4.97-4.37,1.22-1.62,2.23-3.55,3.15-5.88,2.44.61,4.77.91,6.9.91,1.93,0,3.65-.2,5.17-.71,1.52-.71,2.74-1.52,3.76-2.84s1.52-3.05,1.52-4.97-.51-3.96-1.42-6.19c-1.12-2.54-2.84-5.28-5.08-8.02h-.02ZM659.47,358.72c1.73,0,3.25.2,4.47.71,1.22.41,2.03,1.01,2.64,1.93.71.92,1.01,2.03,1.01,3.45,0,1.52-.3,3.25-1.22,5.18-.91,2.33-2.54,4.77-4.57,7.21l-.2-.2c-1.63-1.83-3.45-3.65-5.58-5.48-.41-4.47-1.32-8.52-2.54-12.08,2.23-.51,4.26-.71,5.99-.71h0ZM656.32,374.96c1.42,1.42,2.84,2.74,3.96,4.16l-.41.41c-1.12,1.22-2.23,2.34-3.55,3.55.1-1.32.1-2.74.1-4.06,0-1.42,0-2.64-.1-4.06h0ZM653.99,379.02c0,2.13,0,4.26-.2,6.4-1.62,1.22-3.25,2.53-5.07,3.76-2.54,1.72-5.18,3.35-7.61,4.67-2.54-1.32-5.18-2.94-7.61-4.67-1.82-1.32-3.45-2.54-4.97-3.96-.2-1.93-.3-4.06-.3-6.19s.1-4.36.3-6.29c1.62-1.42,3.25-2.64,4.97-3.96,2.64-1.72,5.18-3.24,7.71-4.57,2.54,1.32,5.07,2.94,7.61,4.77,1.73,1.12,3.45,2.44,4.97,3.76.2,2.03.2,4.16.2,6.29h0ZM652.26,363.49c.41,1.83.81,3.76,1.02,5.79-1.02-.82-1.93-1.63-3.05-2.34-2.13-1.52-4.26-2.84-6.39-4.06,1.32-.61,2.54-1.12,3.76-1.52,1.22-.51,2.43-.91,3.55-1.32.3,1.12.71,2.23,1.12,3.45h-.01ZM632.27,357.1c1.22-2.84,2.64-4.97,4.16-6.49.71-.71,1.63-1.22,2.33-1.63.81-.41,1.62-.51,2.34-.51.81,0,1.63.1,2.34.51,1.42.61,2.74,1.83,3.96,3.55,1.12,1.52,2.03,3.25,2.94,5.28-1.22.41-2.44.71-3.65,1.22-1.83.71-3.65,1.42-5.38,2.43-2.03-1.01-3.86-1.82-5.68-2.53-1.22-.51-2.44-.91-3.55-1.32,0-.1.1-.3.2-.51h0ZM631.16,359.94c1.12.3,2.33.71,3.65,1.22,1.22.51,2.44,1.12,3.76,1.73-2.13,1.12-4.26,2.54-6.39,3.96-1.12.81-2.23,1.62-3.35,2.44.61-3.45,1.42-6.6,2.34-9.34h-.01ZM615.93,369.89c-.82-2.03-1.22-3.75-1.22-5.28,0-1.42.3-2.54,1.02-3.55.71-.81,1.62-1.42,2.74-1.82,1.22-.51,2.64-.71,4.37-.71s3.75.2,5.99.81c-.41,1.12-.81,2.34-1.12,3.65-.61,2.54-1.11,5.48-1.52,8.42-2.13,1.83-4.06,3.75-5.78,5.68-.2-.3-.41-.71-.71-1.02-1.63-2.13-2.84-4.26-3.76-6.19h-.01ZM625.86,374.96v8.02c-1.39-1.32-2.63-2.74-3.95-4.06l.4-.41c1.12-1.22,2.44-2.44,3.55-3.55h0ZM622.73,399.32c-1.62,0-3.24-.3-4.36-.71-1.22-.41-2.13-1.12-2.74-1.93-.71-.91-1.01-2.03-1.01-3.45,0-1.52.41-3.35,1.32-5.28.91-2.23,2.43-4.67,4.47-7.1l.2.1c1.62,1.82,3.55,3.76,5.58,5.58.51,4.36,1.32,8.42,2.54,11.98-2.13.51-4.16.81-5.99.81h0ZM630.04,394.45c-.51-1.72-.81-3.76-1.22-5.68,1.12.71,2.13,1.52,3.25,2.33,2.13,1.42,4.26,2.84,6.39,4.06-1.32.51-2.54,1.02-3.75,1.63-1.22.41-2.44.81-3.66,1.22-.41-1.11-.71-2.33-1.01-3.55h0ZM650.03,400.94c-1.32,2.74-2.74,4.97-4.16,6.4-.91.71-1.62,1.22-2.43,1.62-.71.41-1.52.61-2.34.61-.71,0-1.52-.2-2.34-.61-1.32-.51-2.74-1.82-3.96-3.55-1.01-1.42-2.03-3.15-2.84-5.17,1.11-.41,2.43-.81,3.65-1.22,1.72-.71,3.55-1.52,5.48-2.43,1.83.91,3.65,1.72,5.48,2.43,1.32.61,2.43.92,3.65,1.32,0,.2-.1.51-.2.61h0ZM651.15,398.1c-1.22-.41-2.44-.81-3.65-1.22-1.22-.51-2.54-1.12-3.76-1.73,2.13-1.22,4.26-2.43,6.39-3.96,1.01-.81,2.13-1.62,3.15-2.43-.51,3.35-1.22,6.59-2.13,9.34ZM666.47,396.99c-.61.71-1.52,1.32-2.74,1.93-1.12.3-2.64.61-4.26.61-1.73,0-3.86-.31-5.99-.82.3-1.12.71-2.33,1.01-3.55.71-2.64,1.22-5.58,1.52-8.63,2.13-1.83,4.06-3.65,5.79-5.58.2.41.51.71.71,1.01,1.72,2.13,2.94,4.16,3.75,6.19.81,1.93,1.22,3.76,1.22,5.17s-.31,2.64-1.02,3.65v.02Z"/>
        <path fill="#a362d6" d="M641.1,373.03c-3.25,0-5.99,2.64-5.99,5.99s2.74,6.09,5.99,6.09,5.99-2.84,5.99-6.09-2.64-5.99-5.99-5.99Z"/>
        <path fill="#a362d6" d="M658.3,354.09c-1.89,0-3.48,1.53-3.48,3.48s1.59,3.54,3.48,3.54,3.48-1.65,3.48-3.54-1.54-3.48-3.48-3.48Z"/>
        <path fill="#a362d6" d="M616.8,370.08c-1.89,0-3.48,1.53-3.48,3.48s1.59,3.54,3.48,3.54,3.48-1.65,3.48-3.54-1.54-3.48-3.48-3.48Z"/>
        <path fill="#a362d6" d="M649.12,401.74c-1.89,0-3.48,1.53-3.48,3.48s1.59,3.54,3.48,3.54,3.48-1.65,3.48-3.54-1.54-3.48-3.48-3.48Z"/>
      </g>
    </g>
  </g>
</svg>